<svg t="1710768744220" class="icon" viewBox="0 0 1024 1024" version="1.1" xmlns="http://www.w3.org/2000/svg" p-id="10139" width="100" height="100"><path d="M87.744 642.922667v220.928a72.405333 72.405333 0 0 0 69.824 72.362666l2.581333 0.042667h218.325334V998.4H160.149333a134.549333 134.549333 0 0 1-134.506666-131.136l-0.042667-3.413333V642.901333h62.144z m910.656 0v220.928c0 73.173333-58.410667 132.693333-131.136 134.506666l-3.413333 0.042667h-212.181334v-62.165333l212.16 0.021333a72.405333 72.405333 0 0 0 72.362667-69.802667l0.064-2.602666V642.901333H998.4zM863.850667 25.6c73.173333 0 132.693333 58.410667 134.506666 131.136l0.042667 3.413333v212.778667h-62.144V160.170667a72.405333 72.405333 0 0 0-69.824-72.362667l-2.581333-0.042667h-212.181334V25.6h212.16z m-486.101334 0v62.165333h-217.6a72.405333 72.405333 0 0 0-72.362666 69.802667l-0.042667 2.602667v212.757333H25.6V160.170667c0-73.173333 58.410667-132.693333 131.136-134.528l3.413333-0.042667h217.6zM671.36 204.672H341.248a45.525333 45.525333 0 0 0-45.525333 45.525333v512.234667c0 25.152 20.394667 45.525333 45.525333 45.525333H671.36a45.525333 45.525333 0 0 0 45.546667-45.525333V250.197333a45.525333 45.525333 0 0 0-45.546667-45.525333z" p-id="10140"></path><path d="M842.112 477.866667H181.888a34.133333 34.133333 0 0 0 0 68.288h660.224a34.133333 34.133333 0 0 0 0-68.288z" p-id="10141"></path></svg>