<svg t="1710769247582" class="icon" viewBox="0 0 1024 1024" version="1.1" xmlns="http://www.w3.org/2000/svg" p-id="19629" width="100" height="100"><path d="M230.272 942.805a56.576 56.576 0 0 1-55.467-55.466v-742.4a56.576 56.576 0 0 1 55.467-55.467h366.933a32.981 32.981 0 0 1 21.334 8.533l226.133 221.867a66.261 66.261 0 0 1 12.8 25.6v541.867a56.405 56.405 0 0 1-55.467 55.466z m4.267-68.266l554.666 4.266V375.34h-192a33.835 33.835 0 0 1-34.133-34.134v-192H234.539z m392.533-563.2h119.467l-119.467-115.2z m-290.133 460.8a31.403 31.403 0 0 1-34.134-34.134 33.579 33.579 0 0 1 34.134-34.133h273.066a34.133 34.133 0 1 1 0 68.267z m0-128a31.36 31.36 0 0 1-34.134-34.134 33.45 33.45 0 0 1 34.134-34.133h350.08a34.133 34.133 0 1 1 0 68.267z m0-128a34.133 34.133 0 0 1 0-68.267h209.066a31.232 31.232 0 0 1 34.134 34.133 33.579 33.579 0 0 1-34.134 34.134z" p-id="19630"></path></svg>