<?xml version="1.0" encoding="UTF-8"?>
<!DOCTYPE svg PUBLIC "-//W3C//DTD SVG 1.1//EN" "http://www.w3.org/Graphics/SVG/1.1/DTD/svg11.dtd">
<svg xmlns="http://www.w3.org/2000/svg" version="1.1" width="361px" height="358px" style="shape-rendering:geometricPrecision; text-rendering:geometricPrecision; image-rendering:optimizeQuality; fill-rule:evenodd; clip-rule:evenodd" xmlns:xlink="http://www.w3.org/1999/xlink">
<g><path style="opacity:1" fill="#fcfcfc" d="M 360.5,15.5 C 360.5,125.5 360.5,235.5 360.5,345.5C 357.403,350.386 353.403,354.386 348.5,357.5C 237.5,357.5 126.5,357.5 15.5,357.5C 7.16964,352.83 1.8363,345.83 -0.5,336.5C -0.5,232.167 -0.5,127.833 -0.5,23.5C 1.67811,13.8179 7.34478,6.98458 16.5,3C 18.8333,2.66667 21.1667,2.33333 23.5,2C 130.5,1.33333 237.5,1.33333 344.5,2C 351.619,4.63687 356.952,9.13687 360.5,15.5 Z"/></g>
<g><path style="opacity:1" fill="#54555e" d="M 27.5,28.5 C 57.6621,27.5019 87.9954,27.1685 118.5,27.5C 118.832,66.6702 118.499,105.67 117.5,144.5C 117.5,105.833 117.5,67.1667 117.5,28.5C 89.5,28.5 61.5,28.5 33.5,28.5C 32.5,28.5 31.5,28.5 30.5,28.5C 29.5,29.8333 28.5,29.8333 27.5,28.5 Z"/></g>
<g><path style="opacity:1" fill="#05334c" d="M 326.5,27.5 C 329.833,27.5 333.167,27.5 336.5,27.5C 336.5,66.5 336.5,105.5 336.5,144.5C 311.5,144.5 286.5,144.5 261.5,144.5C 285.679,143.813 310.012,142.98 334.5,142C 331.833,141 331.833,140 334.5,139C 332.817,136.132 331.817,132.966 331.5,129.5C 333.409,118.291 334.075,106.958 333.5,95.5C 331.833,95.5 330.167,95.5 328.5,95.5C 328.953,106.27 328.453,116.937 327,127.5C 326.5,111.503 326.333,95.5035 326.5,79.5C 327.833,79.5 329.167,79.5 330.5,79.5C 330.61,68.8149 330.277,58.1482 329.5,47.5C 328.5,47.5 327.5,47.5 326.5,47.5C 326.5,44.8333 326.5,42.1667 326.5,39.5C 315.96,40.7118 305.293,41.7118 294.5,42.5C 294.5,41.5 294.5,40.5 294.5,39.5C 283.41,40.1297 272.577,39.4631 262,37.5C 260.041,42.6276 259.207,47.9609 259.5,53.5C 260.084,64.8381 260.75,76.1714 261.5,87.5C 260.172,95.4519 259.506,103.452 259.5,111.5C 258.167,111.5 256.833,111.5 255.5,111.5C 254.23,92.316 254.563,73.1493 256.5,54C 256.364,45.9903 255.197,38.1569 253,30.5C 252.617,31.056 252.117,31.3893 251.5,31.5C 251.5,30.5 251.5,29.5 251.5,28.5C 276.672,28.831 301.672,28.4977 326.5,27.5 Z"/></g>
<g><path style="opacity:1" fill="#013354" d="M 223.5,29.5 C 223.5,76.8333 223.5,124.167 223.5,171.5C 222.952,172.688 222.619,173.855 222.5,175C 223.833,175.167 225.167,175.333 226.5,175.5C 244.702,174.149 263.202,173.483 282,173.5C 298.885,173.424 315.718,174.091 332.5,175.5C 332.336,182.202 332.669,188.869 333.5,195.5C 323.167,194.625 312.834,194.125 302.5,194C 303.167,194.333 303.833,194.667 304.5,195C 298.83,195.975 293.33,195.475 288,193.5C 285.258,194.845 282.591,195.845 280,196.5C 279.667,196.167 279.333,195.833 279,195.5C 278.833,208.167 278.667,220.833 278.5,233.5C 278.501,246.518 279.168,259.185 280.5,271.5C 280.5,273.833 280.5,276.167 280.5,278.5C 270.5,278.5 260.5,278.5 250.5,278.5C 250.5,270.167 250.5,261.833 250.5,253.5C 250.769,251.571 250.269,249.905 249,248.5C 246.539,249.218 244.039,249.885 241.5,250.5C 237.991,249.977 234.491,249.643 231,249.5C 225.596,251.158 220.096,252.491 214.5,253.5C 214.5,251.167 214.5,248.833 214.5,246.5C 219.215,247.038 223.548,246.038 227.5,243.5C 222.645,242.624 217.978,241.29 213.5,239.5C 213.167,242.167 212.833,244.833 212.5,247.5C 213.663,255.467 214.496,263.467 215,271.5C 215.499,266.177 215.666,260.844 215.5,255.5C 217.5,255.5 219.5,255.5 221.5,255.5C 221.5,260.833 221.5,266.167 221.5,271.5C 220.5,271.5 219.5,271.5 218.5,271.5C 219.502,282.173 220.502,292.839 221.5,303.5C 220.5,303.5 219.5,303.5 218.5,303.5C 218.656,311.27 222.656,314.27 230.5,312.5C 230.281,311.325 230.614,310.325 231.5,309.5C 232.548,310.383 233.715,311.05 235,311.5C 238.014,310.307 241.181,309.641 244.5,309.5C 262.56,309.63 280.56,309.63 298.5,309.5C 306.415,310.387 306.415,311.554 298.5,313C 291.842,313.5 285.175,313.666 278.5,313.5C 278.5,314.5 278.5,315.5 278.5,316.5C 289.185,316.61 299.852,316.277 310.5,315.5C 309.974,306.356 309.641,297.023 309.5,287.5C 310.488,282.36 310.821,277.026 310.5,271.5C 312.167,271.5 313.833,271.5 315.5,271.5C 316.13,260.41 315.463,249.577 313.5,239C 317.688,237.369 322.021,236.536 326.5,236.5C 326.5,241.5 326.5,246.5 326.5,251.5C 327.833,251.5 329.167,251.5 330.5,251.5C 331.666,263.518 331.333,275.518 329.5,287.5C 328.757,288.908 327.923,290.241 327,291.5C 326.831,284.809 326.331,278.142 325.5,271.5C 325.821,279.473 325.488,287.473 324.5,295.5C 325.5,295.5 326.5,295.5 327.5,295.5C 326.834,303.483 326.501,311.483 326.5,319.5C 327.5,319.5 328.5,319.5 329.5,319.5C 329.346,311.398 330.179,303.398 332,295.5C 332.829,300.802 333.329,306.136 333.5,311.5C 333.7,315.362 333.034,319.029 331.5,322.5C 333.261,324.564 333.595,326.731 332.5,329C 329.674,329.029 327.007,329.195 324.5,329.5C 298.523,329.247 272.523,329.58 246.5,330.5C 230.403,330.667 214.403,330 198.5,328.5C 198.333,295.498 198.5,262.498 199,229.5C 206.754,228.683 214.588,228.183 222.5,228C 225.398,226.359 228.065,225.193 230.5,224.5C 228.604,223.534 226.604,223.201 224.5,223.5C 224.825,215.648 224.492,207.982 223.5,200.5C 223.5,199.833 223.5,199.167 223.5,198.5C 223.021,195.688 221.354,194.355 218.5,194.5C 202.44,195.784 186.44,196.784 170.5,197.5C 170.44,196.957 170.107,196.624 169.5,196.5C 167.154,198.237 166.154,200.57 166.5,203.5C 166.811,225.638 167.477,247.805 168.5,270C 167.875,283.836 167.208,297.669 166.5,311.5C 167.344,316.847 167.844,322.181 168,327.5C 167.308,328.025 166.808,328.692 166.5,329.5C 160.585,331.125 154.585,331.625 148.5,331C 146.867,330.52 145.534,329.687 144.5,328.5C 144.5,327.167 144.5,325.833 144.5,324.5C 145.222,324.082 145.722,323.416 146,322.5C 146.167,308.667 146.333,294.833 146.5,281C 146.499,266.817 145.833,252.983 144.5,239.5C 144.5,225.833 144.5,212.167 144.5,198.5C 105.5,198.5 66.5,198.5 27.5,198.5C 27.5,189.833 27.5,181.167 27.5,172.5C 29.1548,173.93 31.1548,174.764 33.5,175C 67.165,175.5 100.832,175.667 134.5,175.5C 134.5,177.167 134.5,178.833 134.5,180.5C 139.833,180.5 145.167,180.5 150.5,180.5C 150.5,178.833 150.5,177.167 150.5,175.5C 147.68,175.752 145.014,175.252 142.5,174C 143.756,173.583 144.423,172.75 144.5,171.5C 144.5,162.167 144.5,152.833 144.5,143.5C 146.5,143.5 148.5,143.5 150.5,143.5C 150.5,144.5 150.5,145.5 150.5,146.5C 155.833,146.833 161.167,147.167 166.5,147.5C 166.64,149.124 165.973,150.29 164.5,151C 160.129,151.172 155.796,151.672 151.5,152.5C 150.429,154.325 151.096,155.492 153.5,156C 157.76,156.57 161.926,157.403 166,158.5C 167.397,163.689 167.897,168.856 167.5,174C 169.366,174.985 171.366,175.485 173.5,175.5C 176.365,174.113 179.365,173.113 182.5,172.5C 182.5,173.5 182.5,174.5 182.5,175.5C 188.008,174.776 193.008,175.776 197.5,178.5C 200.489,176.961 203.656,175.961 207,175.5C 207.693,170.878 207.193,166.378 205.5,162C 207.095,151.69 206.429,141.523 203.5,131.5C 203.999,127.515 204.332,123.515 204.5,119.5C 203.5,112.833 202.5,106.167 201.5,99.5C 202.791,82.4708 202.791,65.4708 201.5,48.5C 203.191,45.3927 204.358,42.0594 205,38.5C 205.368,37.09 206.201,36.09 207.5,35.5C 209.895,37.9438 212.062,40.6105 214,43.5C 214.499,39.5138 214.666,35.5138 214.5,31.5C 215.791,31.7373 216.791,31.404 217.5,30.5C 219.265,29.5386 221.265,29.2053 223.5,29.5 Z"/></g>
<g><path style="opacity:1" fill="#003354" d="M 30.5,28.5 C 31.5,28.5 32.5,28.5 33.5,28.5C 34.3739,29.5251 35.5405,30.1918 37,30.5C 40.1264,29.8978 43.2931,29.5645 46.5,29.5C 53.475,30.4212 60.475,31.0878 67.5,31.5C 82.1376,30.991 96.8043,30.991 111.5,31.5C 111.5,36.8333 111.5,42.1667 111.5,47.5C 112.833,47.5 114.167,47.5 115.5,47.5C 114.856,57.9868 114.856,68.3201 115.5,78.5C 114.813,92.6581 113.813,106.825 112.5,121C 112.658,128.622 113.658,136.122 115.5,143.5C 87.5,143.5 59.5,143.5 31.5,143.5C 30.5,143.5 29.5,143.5 28.5,143.5C 31.0147,105.953 31.0147,68.4533 28.5,31C 29.756,30.5831 30.4226,29.7498 30.5,28.5 Z"/></g>
<g><path style="opacity:1" fill="#013456" d="M 146.5,33.5 C 147.268,34.2625 147.768,35.2625 148,36.5C 148.333,35.8333 148.667,35.1667 149,34.5C 149.784,38.4311 152.284,40.0978 156.5,39.5C 158.5,39.1667 160.5,38.8333 162.5,38.5C 163.167,37.1667 164.167,36.1667 165.5,35.5C 168.759,50.7229 169.259,66.0563 167,81.5C 165.599,79.8078 163.766,79.1412 161.5,79.5C 161.747,85.5405 161.414,91.5405 160.5,97.5C 161.136,100.794 163.136,102.127 166.5,101.5C 166.343,100.127 166.51,98.7932 167,97.5C 167.418,101.178 167.918,104.845 168.5,108.5C 168.21,110.044 167.544,111.377 166.5,112.5C 160.813,113.208 155.146,113.875 149.5,114.5C 147.517,114.185 146.184,113.185 145.5,111.5C 146.818,108.742 147.485,105.576 147.5,102C 146.608,79.1761 146.274,56.3428 146.5,33.5 Z"/></g>
<g><path style="opacity:1" fill="#013354" d="M 261.5,144.5 C 258.167,144.5 254.833,144.5 251.5,144.5C 251.5,106.833 251.5,69.1667 251.5,31.5C 252.117,31.3893 252.617,31.056 253,30.5C 255.197,38.1569 256.364,45.9903 256.5,54C 254.563,73.1493 254.23,92.316 255.5,111.5C 256.833,111.5 258.167,111.5 259.5,111.5C 259.506,103.452 260.172,95.4519 261.5,87.5C 260.75,76.1714 260.084,64.8381 259.5,53.5C 259.207,47.9609 260.041,42.6276 262,37.5C 272.577,39.4631 283.41,40.1297 294.5,39.5C 294.5,40.5 294.5,41.5 294.5,42.5C 305.293,41.7118 315.96,40.7118 326.5,39.5C 326.5,42.1667 326.5,44.8333 326.5,47.5C 327.5,47.5 328.5,47.5 329.5,47.5C 330.277,58.1482 330.61,68.8149 330.5,79.5C 329.167,79.5 327.833,79.5 326.5,79.5C 326.333,95.5035 326.5,111.503 327,127.5C 328.453,116.937 328.953,106.27 328.5,95.5C 330.167,95.5 331.833,95.5 333.5,95.5C 334.075,106.958 333.409,118.291 331.5,129.5C 331.817,132.966 332.817,136.132 334.5,139C 331.833,140 331.833,141 334.5,142C 310.012,142.98 285.679,143.813 261.5,144.5 Z"/></g>
<g><path style="opacity:1" fill="#0d354c" d="M 144.5,111.5 C 144.833,111.5 145.167,111.5 145.5,111.5C 146.184,113.185 147.517,114.185 149.5,114.5C 155.146,113.875 160.813,113.208 166.5,112.5C 167.544,111.377 168.21,110.044 168.5,108.5C 167.918,104.845 167.418,101.178 167,97.5C 166.51,98.7932 166.343,100.127 166.5,101.5C 163.136,102.127 161.136,100.794 160.5,97.5C 161.414,91.5405 161.747,85.5405 161.5,79.5C 163.766,79.1412 165.599,79.8078 167,81.5C 169.259,66.0563 168.759,50.7229 165.5,35.5C 164.167,36.1667 163.167,37.1667 162.5,38.5C 160.5,38.8333 158.5,39.1667 156.5,39.5C 152.284,40.0978 149.784,38.4311 149,34.5C 148.667,35.1667 148.333,35.8333 148,36.5C 147.768,35.2625 147.268,34.2625 146.5,33.5C 146.167,32.5 145.5,31.8333 144.5,31.5C 144.5,30.1667 144.5,28.8333 144.5,27.5C 153.167,27.5 161.833,27.5 170.5,27.5C 170.5,56.8333 170.5,86.1667 170.5,115.5C 161.833,115.5 153.167,115.5 144.5,115.5C 144.5,114.167 144.5,112.833 144.5,111.5 Z"/></g>
<g><path style="opacity:1" fill="#072641" d="M 27.5,28.5 C 28.5,29.8333 29.5,29.8333 30.5,28.5C 30.4226,29.7498 29.756,30.5831 28.5,31C 31.0147,68.4533 31.0147,105.953 28.5,143.5C 29.5,143.5 30.5,143.5 31.5,143.5C 31.5,143.833 31.5,144.167 31.5,144.5C 30.1667,144.5 28.8333,144.5 27.5,144.5C 27.5,105.833 27.5,67.1667 27.5,28.5 Z"/></g>
<g><path style="opacity:1" fill="#fbfbfb" d="M 314.5,83.5 C 307.794,98.7666 296.794,102.933 281.5,96C 271.797,87.2974 269.963,77.1307 276,65.5C 278.396,62.9334 280.896,60.6 283.5,58.5C 297.922,54.2397 308.088,58.9064 314,72.5C 314.499,76.1516 314.665,79.8183 314.5,83.5 Z"/></g>
<g><path style="opacity:1" fill="#093246" d="M 33.5,28.5 C 61.5,28.5 89.5,28.5 117.5,28.5C 117.5,67.1667 117.5,105.833 117.5,144.5C 88.8333,144.5 60.1667,144.5 31.5,144.5C 31.5,144.167 31.5,143.833 31.5,143.5C 59.5,143.5 87.5,143.5 115.5,143.5C 113.658,136.122 112.658,128.622 112.5,121C 113.813,106.825 114.813,92.6581 115.5,78.5C 114.856,68.3201 114.856,57.9868 115.5,47.5C 114.167,47.5 112.833,47.5 111.5,47.5C 111.5,42.1667 111.5,36.8333 111.5,31.5C 96.8043,30.991 82.1376,30.991 67.5,31.5C 60.475,31.0878 53.475,30.4212 46.5,29.5C 43.2931,29.5645 40.1264,29.8978 37,30.5C 35.5405,30.1918 34.3739,29.5251 33.5,28.5 Z"/></g>
<g><path style="opacity:1" fill="#24313c" d="M 223.5,29.5 C 221.265,29.2053 219.265,29.5386 217.5,30.5C 211.211,29.6279 204.878,29.2946 198.5,29.5C 198.832,77.0029 198.499,124.336 197.5,171.5C 197.5,123.5 197.5,75.5 197.5,27.5C 206.565,26.8636 215.231,27.5302 223.5,29.5 Z"/></g>
<g><path style="opacity:1" fill="#032444" d="M 144.5,31.5 C 145.5,31.8333 146.167,32.5 146.5,33.5C 146.274,56.3428 146.608,79.1761 147.5,102C 147.485,105.576 146.818,108.742 145.5,111.5C 145.167,111.5 144.833,111.5 144.5,111.5C 144.5,84.8333 144.5,58.1667 144.5,31.5 Z"/></g>
<g><path style="opacity:1" fill="#0a314c" d="M 70.5,51.5 C 75.7112,51.5235 79.8779,53.5235 83,57.5C 87.8806,56.6858 92.2139,58.0192 96,61.5C 96.1667,61.8333 96.3333,62.1667 96.5,62.5C 93.3421,64.0969 93.0087,66.4302 95.5,69.5C 96.1667,69.8333 96.8333,70.1667 97.5,70.5C 98.7139,75.115 99.7139,79.7817 100.5,84.5C 100.392,85.4419 100.059,86.2753 99.5,87C 100.744,87.4561 101.577,86.9561 102,85.5C 102.494,87.1341 102.66,88.8008 102.5,90.5C 97.8254,89.3395 95.1587,91.0061 94.5,95.5C 97.1667,95.5 99.8333,95.5 102.5,95.5C 102.5,97.5 102.5,99.5 102.5,101.5C 98.7232,102.979 94.7232,103.812 90.5,104C 86.2346,107.299 81.5679,109.799 76.5,111.5C 69.4034,109.362 62.07,108.362 54.5,108.5C 54.5,106.833 54.5,105.167 54.5,103.5C 57.5799,102.304 60.4132,102.304 63,103.5C 63.9025,102.299 65.0692,101.465 66.5,101C 60.0871,99.3272 53.9204,97.1605 48,94.5C 46.9887,95.3366 45.8221,95.67 44.5,95.5C 45.0625,91.875 46.0625,88.375 47.5,85C 47.4988,83.6012 47.1654,82.1012 46.5,80.5C 47.5217,79.646 48.3551,78.646 49,77.5C 49.8664,72.0861 50.1997,66.7528 50,61.5C 51.4907,59.9963 53.324,59.1629 55.5,59C 57.2078,57.9377 57.8745,56.771 57.5,55.5C 58.086,55.7093 58.586,56.0426 59,56.5C 62.9618,54.63 66.7952,52.9634 70.5,51.5 Z"/></g>
<g><path style="opacity:1" fill="#fafafa" d="M 69.5,56.5 C 84.3266,56.8282 92.66,64.3282 94.5,79C 89.9078,97.9628 78.5745,103.629 60.5,96C 50.0071,86.219 48.8404,75.3857 57,63.5C 60.7386,60.2185 64.9053,57.8852 69.5,56.5 Z"/></g>
<g><path style="opacity:1" fill="#042f4b" d="M 217.5,30.5 C 216.791,31.404 215.791,31.7373 214.5,31.5C 214.666,35.5138 214.499,39.5138 214,43.5C 212.062,40.6105 209.895,37.9438 207.5,35.5C 206.201,36.09 205.368,37.09 205,38.5C 204.358,42.0594 203.191,45.3927 201.5,48.5C 202.791,65.4708 202.791,82.4708 201.5,99.5C 202.5,106.167 203.5,112.833 204.5,119.5C 204.332,123.515 203.999,127.515 203.5,131.5C 206.429,141.523 207.095,151.69 205.5,162C 207.193,166.378 207.693,170.878 207,175.5C 203.656,175.961 200.489,176.961 197.5,178.5C 193.008,175.776 188.008,174.776 182.5,175.5C 182.5,174.5 182.5,173.5 182.5,172.5C 179.365,173.113 176.365,174.113 173.5,175.5C 171.366,175.485 169.366,174.985 167.5,174C 167.897,168.856 167.397,163.689 166,158.5C 161.926,157.403 157.76,156.57 153.5,156C 151.096,155.492 150.429,154.325 151.5,152.5C 155.796,151.672 160.129,151.172 164.5,151C 165.973,150.29 166.64,149.124 166.5,147.5C 161.167,147.167 155.833,146.833 150.5,146.5C 150.5,145.5 150.5,144.5 150.5,143.5C 157.167,143.5 163.833,143.5 170.5,143.5C 170.5,152.833 170.5,162.167 170.5,171.5C 179.5,171.5 188.5,171.5 197.5,171.5C 198.499,124.336 198.832,77.0029 198.5,29.5C 204.878,29.2946 211.211,29.6279 217.5,30.5 Z"/></g>
<g><path style="opacity:1" fill="#0c334d" d="M 283.5,58.5 C 280.896,60.6 278.396,62.9334 276,65.5C 269.963,77.1307 271.797,87.2974 281.5,96C 296.794,102.933 307.794,98.7666 314.5,83.5C 314.369,84.2389 314.536,84.9056 315,85.5C 315.654,84.3044 316.154,84.3044 316.5,85.5C 315.11,87.1694 314.777,88.8361 315.5,90.5C 313.876,91.8689 313.376,93.5355 314,95.5C 314.691,93.1088 315.691,93.1088 317,95.5C 316.597,90.5918 318.263,86.5918 322,83.5C 323.266,87.3951 323.766,91.3951 323.5,95.5C 322.5,95.5 321.5,95.5 320.5,95.5C 319.838,101.489 316.505,104.823 310.5,105.5C 310.5,106.5 310.5,107.5 310.5,108.5C 303.387,109.417 296.387,109.75 289.5,109.5C 283.2,108.457 276.867,107.79 270.5,107.5C 270.5,103.5 270.5,99.5 270.5,95.5C 273.598,95.5875 273.932,95.0875 271.5,94C 271.5,92.6667 271.5,91.3333 271.5,90C 270.062,89.7811 268.729,89.2811 267.5,88.5C 268.423,85.5534 269.089,82.5534 269.5,79.5C 268.5,79.5 267.5,79.5 266.5,79.5C 268.054,73.8821 270.054,68.3821 272.5,63C 271.044,62.5774 270.544,61.7441 271,60.5C 271.414,60.9574 271.914,61.2907 272.5,61.5C 275.935,59.7744 279.602,58.7744 283.5,58.5 Z"/></g>
<g><path style="opacity:1" fill="#766f7a" d="M 326.5,27.5 C 301.672,28.4977 276.672,28.831 251.5,28.5C 251.5,29.5 251.5,30.5 251.5,31.5C 251.5,69.1667 251.5,106.833 251.5,144.5C 250.501,105.67 250.168,66.6702 250.5,27.5C 275.833,27.5 301.167,27.5 326.5,27.5 Z"/></g>
<g><path style="opacity:1" fill="#15364a" d="M 27.5,172.5 C 66.3298,171.501 105.33,171.168 144.5,171.5C 144.423,172.75 143.756,173.583 142.5,174C 145.014,175.252 147.68,175.752 150.5,175.5C 150.5,177.167 150.5,178.833 150.5,180.5C 145.167,180.5 139.833,180.5 134.5,180.5C 134.5,178.833 134.5,177.167 134.5,175.5C 100.832,175.667 67.165,175.5 33.5,175C 31.1548,174.764 29.1548,173.93 27.5,172.5 Z"/></g>
<g><path style="opacity:1" fill="#12364b" d="M 223.5,171.5 C 261.167,171.5 298.833,171.5 336.5,171.5C 336.5,180.5 336.5,189.5 336.5,198.5C 317.833,198.5 299.167,198.5 280.5,198.5C 280.5,222.833 280.5,247.167 280.5,271.5C 279.168,259.185 278.501,246.518 278.5,233.5C 278.667,220.833 278.833,208.167 279,195.5C 279.333,195.833 279.667,196.167 280,196.5C 282.591,195.845 285.258,194.845 288,193.5C 293.33,195.475 298.83,195.975 304.5,195C 303.833,194.667 303.167,194.333 302.5,194C 312.834,194.125 323.167,194.625 333.5,195.5C 332.669,188.869 332.336,182.202 332.5,175.5C 315.718,174.091 298.885,173.424 282,173.5C 263.202,173.483 244.702,174.149 226.5,175.5C 225.167,175.333 223.833,175.167 222.5,175C 222.619,173.855 222.952,172.688 223.5,171.5 Z"/></g>
<g><path style="opacity:1" fill="#d5d0d4" d="M 27.5,198.5 C 66.5,198.5 105.5,198.5 144.5,198.5C 144.5,212.167 144.5,225.833 144.5,239.5C 144.5,267.833 144.5,296.167 144.5,324.5C 144.5,325.833 144.5,327.167 144.5,328.5C 144.5,328.833 144.5,329.167 144.5,329.5C 143.501,286.337 143.168,243.003 143.5,199.5C 104.663,199.832 65.9964,199.499 27.5,198.5 Z"/></g>
<g><path style="opacity:1" fill="#787077" d="M 27.5,226.5 C 57.6621,225.502 87.9954,225.169 118.5,225.5C 118.832,261.337 118.498,297.004 117.5,332.5C 117.5,332.167 117.5,331.833 117.5,331.5C 117.5,296.5 117.5,261.5 117.5,226.5C 112.5,226.5 107.5,226.5 102.5,226.5C 78.8333,226.5 55.1667,226.5 31.5,226.5C 30.1667,226.5 28.8333,226.5 27.5,226.5 Z"/></g>
<g><path style="opacity:1" fill="#022e40" d="M 31.5,226.5 C 55.1667,226.5 78.8333,226.5 102.5,226.5C 80.8561,228.325 58.8561,229.158 36.5,229C 34.9751,230.009 33.3084,230.509 31.5,230.5C 31.5,229.5 31.5,228.5 31.5,227.5C 31.5,227.167 31.5,226.833 31.5,226.5 Z"/></g>
<g><path style="opacity:1" fill="#013453" d="M 102.5,226.5 C 107.5,226.5 112.5,226.5 117.5,226.5C 117.5,261.5 117.5,296.5 117.5,331.5C 91.2091,330.351 64.8757,330.185 38.5,331C 35.3054,331.181 32.3054,331.681 29.5,332.5C 27.6122,330.012 26.9455,327.012 27.5,323.5C 28.322,321.611 29.1553,319.611 30,317.5C 30.809,288.817 30.6423,260.15 29.5,231.5C 29.3402,229.645 30.0069,228.312 31.5,227.5C 31.5,228.5 31.5,229.5 31.5,230.5C 33.3084,230.509 34.9751,230.009 36.5,229C 58.8561,229.158 80.8561,228.325 102.5,226.5 Z"/></g>
<g><path style="opacity:1" fill="#022c40" d="M 223.5,198.5 C 205.833,198.5 188.167,198.5 170.5,198.5C 170.5,241.833 170.5,285.167 170.5,328.5C 169.167,284.833 169.167,241.167 170.5,197.5C 186.44,196.784 202.44,195.784 218.5,194.5C 221.354,194.355 223.021,195.688 223.5,198.5 Z"/></g>
<g><path style="opacity:1" fill="#0a3850" d="M 170.5,197.5 C 169.167,241.167 169.167,284.833 170.5,328.5C 170.5,329.833 170.5,331.167 170.5,332.5C 161.833,332.5 153.167,332.5 144.5,332.5C 144.5,331.5 144.5,330.5 144.5,329.5C 144.5,329.167 144.5,328.833 144.5,328.5C 145.534,329.687 146.867,330.52 148.5,331C 154.585,331.625 160.585,331.125 166.5,329.5C 166.808,328.692 167.308,328.025 168,327.5C 167.844,322.181 167.344,316.847 166.5,311.5C 167.208,297.669 167.875,283.836 168.5,270C 167.477,247.805 166.811,225.638 166.5,203.5C 166.154,200.57 167.154,198.237 169.5,196.5C 170.107,196.624 170.44,196.957 170.5,197.5 Z"/></g>
<g><path style="opacity:1" fill="#0a2845" d="M 27.5,226.5 C 28.8333,226.5 30.1667,226.5 31.5,226.5C 31.5,226.833 31.5,227.167 31.5,227.5C 30.0069,228.312 29.3402,229.645 29.5,231.5C 30.6423,260.15 30.809,288.817 30,317.5C 29.1553,319.611 28.322,321.611 27.5,323.5C 27.5,291.167 27.5,258.833 27.5,226.5 Z"/></g>
<g><path style="opacity:1" fill="#fafafa" d="M 86.5,265.5 C 94.6874,273.257 96.3541,282.257 91.5,292.5C 83.6296,302.832 73.6296,305.332 61.5,300C 48.1699,288.014 48.1699,276.014 61.5,264C 70.1314,259.119 78.4648,259.619 86.5,265.5 Z"/></g>
<g><path style="opacity:1" fill="#073753" d="M 336.5,328.5 C 336.5,329.5 336.5,330.5 336.5,331.5C 332.395,330.891 328.395,330.225 324.5,329.5C 327.007,329.195 329.674,329.029 332.5,329C 333.595,326.731 333.261,324.564 331.5,322.5C 333.034,319.029 333.7,315.362 333.5,311.5C 333.329,306.136 332.829,300.802 332,295.5C 330.179,303.398 329.346,311.398 329.5,319.5C 328.5,319.5 327.5,319.5 326.5,319.5C 326.501,311.483 326.834,303.483 327.5,295.5C 326.5,295.5 325.5,295.5 324.5,295.5C 325.488,287.473 325.821,279.473 325.5,271.5C 326.331,278.142 326.831,284.809 327,291.5C 327.923,290.241 328.757,288.908 329.5,287.5C 331.333,275.518 331.666,263.518 330.5,251.5C 329.167,251.5 327.833,251.5 326.5,251.5C 326.5,246.5 326.5,241.5 326.5,236.5C 322.021,236.536 317.688,237.369 313.5,239C 315.463,249.577 316.13,260.41 315.5,271.5C 313.833,271.5 312.167,271.5 310.5,271.5C 310.821,277.026 310.488,282.36 309.5,287.5C 309.167,268.155 309.5,248.822 310.5,229.5C 318.778,228.53 327.111,228.197 335.5,228.5C 335.714,230.144 335.38,231.644 334.5,233C 335.163,264.931 335.83,296.764 336.5,328.5 Z"/></g>
<g><path style="opacity:1" fill="#9d959d" d="M 336.5,226.5 C 326.833,226.5 317.167,226.5 307.5,226.5C 307.831,253.005 307.498,279.339 306.5,305.5C 306.5,305.167 306.5,304.833 306.5,304.5C 306.5,278.167 306.5,251.833 306.5,225.5C 316.681,225.173 326.681,225.506 336.5,226.5 Z"/></g>
<g><path style="opacity:1" fill="#05233a" d="M 144.5,239.5 C 145.833,252.983 146.499,266.817 146.5,281C 146.333,294.833 146.167,308.667 146,322.5C 145.722,323.416 145.222,324.082 144.5,324.5C 144.5,296.167 144.5,267.833 144.5,239.5 Z"/></g>
<g><path style="opacity:1" fill="#0e344e" d="M 86.5,265.5 C 78.4648,259.619 70.1314,259.119 61.5,264C 48.1699,276.014 48.1699,288.014 61.5,300C 73.6296,305.332 83.6296,302.832 91.5,292.5C 92.4778,292.811 93.1445,293.478 93.5,294.5C 92.5585,297.901 90.5585,300.401 87.5,302C 87.8333,302.333 88.1667,302.667 88.5,303C 87.0267,303.71 86.3601,304.876 86.5,306.5C 74.6968,306.7 74.6968,307.367 86.5,308.5C 86.5,309.5 86.5,310.5 86.5,311.5C 81.1667,311.5 75.8333,311.5 70.5,311.5C 70.5,310.5 70.5,309.5 70.5,308.5C 65.1667,308.5 59.8333,308.5 54.5,308.5C 54.5,306.833 54.5,305.167 54.5,303.5C 53.5,303.5 52.5,303.5 51.5,303.5C 49.9557,298.09 48.289,292.757 46.5,287.5C 47.5,287.5 48.5,287.5 49.5,287.5C 49.6641,284.813 49.4974,282.146 49,279.5C 48.0805,279.07 47.2472,278.736 46.5,278.5C 47.6276,276.092 48.961,274.592 50.5,274C 49.7827,272.469 48.7827,271.136 47.5,270C 48.3767,268.133 49.8767,266.966 52,266.5C 53.5588,264.783 54.3921,262.783 54.5,260.5C 58.3724,259.293 62.3724,258.293 66.5,257.5C 72.4415,257.77 78.4415,257.936 84.5,258C 83.8333,258.333 83.1667,258.667 82.5,259C 83.7839,259.684 84.9505,259.517 86,258.5C 86.4966,260.81 86.6633,263.143 86.5,265.5 Z"/></g>
<g><path style="opacity:1" fill="#2a3848" d="M 223.5,200.5 C 224.492,207.982 224.825,215.648 224.5,223.5C 226.604,223.201 228.604,223.534 230.5,224.5C 228.065,225.193 225.398,226.359 222.5,228C 214.588,228.183 206.754,228.683 199,229.5C 198.5,262.498 198.333,295.498 198.5,328.5C 198.527,330.199 199.194,331.533 200.5,332.5C 199.5,332.5 198.5,332.5 197.5,332.5C 197.5,296.833 197.5,261.167 197.5,225.5C 206.167,225.5 214.833,225.5 223.5,225.5C 223.5,217.167 223.5,208.833 223.5,200.5 Z"/></g>
<g><path style="opacity:1" fill="#0a2f46" d="M 336.5,226.5 C 336.5,260.5 336.5,294.5 336.5,328.5C 335.83,296.764 335.163,264.931 334.5,233C 335.38,231.644 335.714,230.144 335.5,228.5C 327.111,228.197 318.778,228.53 310.5,229.5C 309.5,248.822 309.167,268.155 309.5,287.5C 309.641,297.023 309.974,306.356 310.5,315.5C 299.852,316.277 289.185,316.61 278.5,316.5C 278.5,315.5 278.5,314.5 278.5,313.5C 285.175,313.666 291.842,313.5 298.5,313C 306.415,311.554 306.415,310.387 298.5,309.5C 280.56,309.63 262.56,309.63 244.5,309.5C 241.181,309.641 238.014,310.307 235,311.5C 233.715,311.05 232.548,310.383 231.5,309.5C 230.614,310.325 230.281,311.325 230.5,312.5C 222.656,314.27 218.656,311.27 218.5,303.5C 219.5,303.5 220.5,303.5 221.5,303.5C 220.502,292.839 219.502,282.173 218.5,271.5C 219.5,271.5 220.5,271.5 221.5,271.5C 221.5,266.167 221.5,260.833 221.5,255.5C 219.5,255.5 217.5,255.5 215.5,255.5C 215.666,260.844 215.499,266.177 215,271.5C 214.496,263.467 213.663,255.467 212.5,247.5C 212.833,244.833 213.167,242.167 213.5,239.5C 217.978,241.29 222.645,242.624 227.5,243.5C 223.548,246.038 219.215,247.038 214.5,246.5C 214.5,248.833 214.5,251.167 214.5,253.5C 220.096,252.491 225.596,251.158 231,249.5C 234.491,249.643 237.991,249.977 241.5,250.5C 244.039,249.885 246.539,249.218 249,248.5C 250.269,249.905 250.769,251.571 250.5,253.5C 241.318,253.173 232.318,253.507 223.5,254.5C 223.5,271.5 223.5,288.5 223.5,305.5C 251.167,305.5 278.833,305.5 306.5,305.5C 307.498,279.339 307.831,253.005 307.5,226.5C 317.167,226.5 326.833,226.5 336.5,226.5 Z"/></g>
<g><path style="opacity:1" fill="#d5cdce" d="M 223.5,254.5 C 224.497,270.992 224.83,287.658 224.5,304.5C 251.833,304.5 279.167,304.5 306.5,304.5C 306.5,304.833 306.5,305.167 306.5,305.5C 278.833,305.5 251.167,305.5 223.5,305.5C 223.5,288.5 223.5,271.5 223.5,254.5 Z"/></g>
<g><path style="opacity:1" fill="#043848" d="M 198.5,328.5 C 214.403,330 230.403,330.667 246.5,330.5C 272.523,329.58 298.523,329.247 324.5,329.5C 328.395,330.225 332.395,330.891 336.5,331.5C 291.336,332.499 246.003,332.832 200.5,332.5C 199.194,331.533 198.527,330.199 198.5,328.5 Z"/></g>
<g><path style="opacity:1" fill="#013540" d="M 117.5,331.5 C 117.5,331.833 117.5,332.167 117.5,332.5C 88.1667,332.5 58.8333,332.5 29.5,332.5C 32.3054,331.681 35.3054,331.181 38.5,331C 64.8757,330.185 91.2091,330.351 117.5,331.5 Z"/></g>
</svg>
